<mxfile host="app.diagrams.net" modified="2022-01-18T03:56:34.765Z" agent="5.0 (Windows NT 10.0; Win64; x64) AppleWebKit/537.36 (KHTML, like Gecko) Chrome/97.0.4692.71 Safari/537.36" etag="g_7lbwPSJlGrIvgdlaR3" version="16.2.7" type="github" pages="2">
  <diagram id="SaLpI0_s9lk5tGEbdPId" name="Flink RPC">
    <mxGraphModel dx="2554" dy="1016" grid="1" gridSize="10" guides="1" tooltips="1" connect="1" arrows="1" fold="1" page="1" pageScale="1" pageWidth="827" pageHeight="1169" math="0" shadow="0">
      <root>
        <mxCell id="0" />
        <mxCell id="1" parent="0" />
        <mxCell id="cWcw-PcEzno_2bNdeW2P-1" value="ActorSystem" style="rounded=0;whiteSpace=wrap;html=1;strokeWidth=2;fillColor=#ffcc99;strokeColor=#36393d;verticalAlign=top;fontSize=24;" vertex="1" parent="1">
          <mxGeometry x="40" y="70" width="720" height="300" as="geometry" />
        </mxCell>
        <mxCell id="cWcw-PcEzno_2bNdeW2P-2" value="Actor" style="rounded=0;whiteSpace=wrap;html=1;fontSize=24;strokeWidth=2;fillColor=#f8cecc;strokeColor=#b85450;verticalAlign=top;" vertex="1" parent="1">
          <mxGeometry x="70" y="140" width="440" height="200" as="geometry" />
        </mxCell>
        <mxCell id="cWcw-PcEzno_2bNdeW2P-3" value="ActorRef" style="ellipse;whiteSpace=wrap;html=1;fontSize=18;strokeWidth=2;fillColor=#60a917;fontColor=#ffffff;strokeColor=#2D7600;" vertex="1" parent="1">
          <mxGeometry x="80" y="230" width="120" height="80" as="geometry" />
        </mxCell>
        <mxCell id="cWcw-PcEzno_2bNdeW2P-4" value="MailBox" style="rounded=1;whiteSpace=wrap;html=1;fontSize=18;strokeWidth=2;fillColor=#1ba1e2;fontColor=#ffffff;strokeColor=#006EAF;" vertex="1" parent="1">
          <mxGeometry x="230" y="240" width="120" height="60" as="geometry" />
        </mxCell>
        <mxCell id="cWcw-PcEzno_2bNdeW2P-5" value="ActorRef" style="ellipse;whiteSpace=wrap;html=1;fontSize=18;strokeWidth=2;fillColor=#60a917;fontColor=#ffffff;strokeColor=#2D7600;" vertex="1" parent="1">
          <mxGeometry x="370" y="220" width="120" height="80" as="geometry" />
        </mxCell>
        <mxCell id="cWcw-PcEzno_2bNdeW2P-6" value="Actor" style="rounded=0;whiteSpace=wrap;html=1;fontSize=24;strokeWidth=2;fillColor=#f8cecc;strokeColor=#b85450;" vertex="1" parent="1">
          <mxGeometry x="590" y="120" width="130" height="70" as="geometry" />
        </mxCell>
        <mxCell id="cWcw-PcEzno_2bNdeW2P-7" value="Actor" style="rounded=0;whiteSpace=wrap;html=1;fontSize=24;strokeWidth=2;fillColor=#f8cecc;strokeColor=#b85450;" vertex="1" parent="1">
          <mxGeometry x="590" y="235" width="130" height="70" as="geometry" />
        </mxCell>
        <mxCell id="cWcw-PcEzno_2bNdeW2P-8" value="ActorSystem" style="rounded=0;whiteSpace=wrap;html=1;strokeWidth=2;fillColor=#ffcc99;strokeColor=#36393d;verticalAlign=top;fontSize=24;" vertex="1" parent="1">
          <mxGeometry x="-450" y="570" width="720" height="300" as="geometry" />
        </mxCell>
        <mxCell id="cWcw-PcEzno_2bNdeW2P-9" value="Actor" style="rounded=0;whiteSpace=wrap;html=1;fontSize=24;strokeWidth=2;fillColor=#f8cecc;strokeColor=#b85450;verticalAlign=top;" vertex="1" parent="1">
          <mxGeometry x="-420" y="640" width="440" height="200" as="geometry" />
        </mxCell>
        <mxCell id="cWcw-PcEzno_2bNdeW2P-22" style="rounded=0;orthogonalLoop=1;jettySize=auto;html=1;entryX=0;entryY=0.5;entryDx=0;entryDy=0;fontSize=24;strokeWidth=2;" edge="1" parent="1" source="cWcw-PcEzno_2bNdeW2P-10" target="cWcw-PcEzno_2bNdeW2P-2">
          <mxGeometry relative="1" as="geometry" />
        </mxCell>
        <mxCell id="cWcw-PcEzno_2bNdeW2P-23" value="Mail" style="edgeLabel;html=1;align=center;verticalAlign=middle;resizable=0;points=[];fontSize=24;" vertex="1" connectable="0" parent="cWcw-PcEzno_2bNdeW2P-22">
          <mxGeometry x="0.1099" y="1" relative="1" as="geometry">
            <mxPoint as="offset" />
          </mxGeometry>
        </mxCell>
        <mxCell id="cWcw-PcEzno_2bNdeW2P-10" value="ActorRef" style="ellipse;whiteSpace=wrap;html=1;fontSize=18;strokeWidth=2;fillColor=#60a917;fontColor=#ffffff;strokeColor=#2D7600;" vertex="1" parent="1">
          <mxGeometry x="-410" y="730" width="120" height="80" as="geometry" />
        </mxCell>
        <mxCell id="cWcw-PcEzno_2bNdeW2P-11" value="MailBox" style="rounded=1;whiteSpace=wrap;html=1;fontSize=18;strokeWidth=2;fillColor=#1ba1e2;fontColor=#ffffff;strokeColor=#006EAF;" vertex="1" parent="1">
          <mxGeometry x="-260" y="740" width="120" height="60" as="geometry" />
        </mxCell>
        <mxCell id="cWcw-PcEzno_2bNdeW2P-12" value="ActorRef" style="ellipse;whiteSpace=wrap;html=1;fontSize=18;strokeWidth=2;fillColor=#60a917;fontColor=#ffffff;strokeColor=#2D7600;" vertex="1" parent="1">
          <mxGeometry x="-120" y="720" width="120" height="80" as="geometry" />
        </mxCell>
        <mxCell id="cWcw-PcEzno_2bNdeW2P-13" value="Actor" style="rounded=0;whiteSpace=wrap;html=1;fontSize=24;strokeWidth=2;fillColor=#f8cecc;strokeColor=#b85450;" vertex="1" parent="1">
          <mxGeometry x="100" y="620" width="130" height="70" as="geometry" />
        </mxCell>
        <mxCell id="cWcw-PcEzno_2bNdeW2P-14" value="Actor" style="rounded=0;whiteSpace=wrap;html=1;fontSize=24;strokeWidth=2;fillColor=#f8cecc;strokeColor=#b85450;" vertex="1" parent="1">
          <mxGeometry x="100" y="735" width="130" height="70" as="geometry" />
        </mxCell>
        <mxCell id="cWcw-PcEzno_2bNdeW2P-15" value="ActorSystem" style="rounded=0;whiteSpace=wrap;html=1;strokeWidth=2;fillColor=#ffcc99;strokeColor=#36393d;verticalAlign=top;fontSize=24;" vertex="1" parent="1">
          <mxGeometry x="580" y="570" width="720" height="300" as="geometry" />
        </mxCell>
        <mxCell id="cWcw-PcEzno_2bNdeW2P-16" value="Actor" style="rounded=0;whiteSpace=wrap;html=1;fontSize=24;strokeWidth=2;fillColor=#f8cecc;strokeColor=#b85450;verticalAlign=top;" vertex="1" parent="1">
          <mxGeometry x="610" y="640" width="440" height="200" as="geometry" />
        </mxCell>
        <mxCell id="cWcw-PcEzno_2bNdeW2P-27" style="edgeStyle=none;rounded=0;orthogonalLoop=1;jettySize=auto;html=1;fontSize=24;strokeWidth=2;exitX=0.5;exitY=0;exitDx=0;exitDy=0;entryX=1;entryY=0.75;entryDx=0;entryDy=0;" edge="1" parent="1" source="cWcw-PcEzno_2bNdeW2P-19" target="cWcw-PcEzno_2bNdeW2P-2">
          <mxGeometry relative="1" as="geometry" />
        </mxCell>
        <mxCell id="cWcw-PcEzno_2bNdeW2P-29" value="Mail" style="edgeLabel;html=1;align=center;verticalAlign=middle;resizable=0;points=[];fontSize=24;" vertex="1" connectable="0" parent="cWcw-PcEzno_2bNdeW2P-27">
          <mxGeometry x="0.0747" y="-2" relative="1" as="geometry">
            <mxPoint as="offset" />
          </mxGeometry>
        </mxCell>
        <mxCell id="cWcw-PcEzno_2bNdeW2P-30" style="edgeStyle=none;rounded=0;orthogonalLoop=1;jettySize=auto;html=1;entryX=1.011;entryY=0.946;entryDx=0;entryDy=0;entryPerimeter=0;fontSize=24;strokeWidth=2;" edge="1" parent="1" source="cWcw-PcEzno_2bNdeW2P-17" target="cWcw-PcEzno_2bNdeW2P-9">
          <mxGeometry relative="1" as="geometry" />
        </mxCell>
        <mxCell id="cWcw-PcEzno_2bNdeW2P-33" value="Mail" style="edgeLabel;html=1;align=center;verticalAlign=middle;resizable=0;points=[];fontSize=24;" vertex="1" connectable="0" parent="cWcw-PcEzno_2bNdeW2P-30">
          <mxGeometry x="-0.17" y="3" relative="1" as="geometry">
            <mxPoint as="offset" />
          </mxGeometry>
        </mxCell>
        <mxCell id="cWcw-PcEzno_2bNdeW2P-17" value="ActorRef" style="ellipse;whiteSpace=wrap;html=1;fontSize=18;strokeWidth=2;fillColor=#60a917;fontColor=#ffffff;strokeColor=#2D7600;" vertex="1" parent="1">
          <mxGeometry x="620" y="730" width="120" height="80" as="geometry" />
        </mxCell>
        <mxCell id="cWcw-PcEzno_2bNdeW2P-18" value="MailBox" style="rounded=1;whiteSpace=wrap;html=1;fontSize=18;strokeWidth=2;fillColor=#1ba1e2;fontColor=#ffffff;strokeColor=#006EAF;" vertex="1" parent="1">
          <mxGeometry x="770" y="740" width="120" height="60" as="geometry" />
        </mxCell>
        <mxCell id="cWcw-PcEzno_2bNdeW2P-19" value="ActorRef" style="ellipse;whiteSpace=wrap;html=1;fontSize=18;strokeWidth=2;fillColor=#60a917;fontColor=#ffffff;strokeColor=#2D7600;" vertex="1" parent="1">
          <mxGeometry x="910" y="720" width="120" height="80" as="geometry" />
        </mxCell>
        <mxCell id="cWcw-PcEzno_2bNdeW2P-20" value="Actor" style="rounded=0;whiteSpace=wrap;html=1;fontSize=24;strokeWidth=2;fillColor=#f8cecc;strokeColor=#b85450;" vertex="1" parent="1">
          <mxGeometry x="1130" y="620" width="130" height="70" as="geometry" />
        </mxCell>
        <mxCell id="cWcw-PcEzno_2bNdeW2P-21" value="Actor" style="rounded=0;whiteSpace=wrap;html=1;fontSize=24;strokeWidth=2;fillColor=#f8cecc;strokeColor=#b85450;" vertex="1" parent="1">
          <mxGeometry x="1130" y="735" width="130" height="70" as="geometry" />
        </mxCell>
        <mxCell id="cWcw-PcEzno_2bNdeW2P-24" style="edgeStyle=none;rounded=0;orthogonalLoop=1;jettySize=auto;html=1;fontSize=24;strokeWidth=2;" edge="1" parent="1" source="cWcw-PcEzno_2bNdeW2P-3">
          <mxGeometry relative="1" as="geometry">
            <mxPoint x="-100" y="640" as="targetPoint" />
          </mxGeometry>
        </mxCell>
        <mxCell id="cWcw-PcEzno_2bNdeW2P-25" value="Mail" style="edgeLabel;html=1;align=center;verticalAlign=middle;resizable=0;points=[];fontSize=24;" vertex="1" connectable="0" parent="cWcw-PcEzno_2bNdeW2P-24">
          <mxGeometry x="-0.156" y="-3" relative="1" as="geometry">
            <mxPoint x="-1" as="offset" />
          </mxGeometry>
        </mxCell>
        <mxCell id="cWcw-PcEzno_2bNdeW2P-26" style="edgeStyle=none;rounded=0;orthogonalLoop=1;jettySize=auto;html=1;entryX=0.5;entryY=0;entryDx=0;entryDy=0;fontSize=24;strokeWidth=2;" edge="1" parent="1" source="cWcw-PcEzno_2bNdeW2P-5" target="cWcw-PcEzno_2bNdeW2P-16">
          <mxGeometry relative="1" as="geometry" />
        </mxCell>
        <mxCell id="cWcw-PcEzno_2bNdeW2P-28" value="Mail" style="edgeLabel;html=1;align=center;verticalAlign=middle;resizable=0;points=[];fontSize=24;" vertex="1" connectable="0" parent="cWcw-PcEzno_2bNdeW2P-26">
          <mxGeometry x="-0.1128" y="2" relative="1" as="geometry">
            <mxPoint x="-1" as="offset" />
          </mxGeometry>
        </mxCell>
        <mxCell id="cWcw-PcEzno_2bNdeW2P-31" style="edgeStyle=none;rounded=0;orthogonalLoop=1;jettySize=auto;html=1;entryX=0;entryY=0.25;entryDx=0;entryDy=0;fontSize=24;strokeWidth=2;" edge="1" parent="1" source="cWcw-PcEzno_2bNdeW2P-12" target="cWcw-PcEzno_2bNdeW2P-16">
          <mxGeometry relative="1" as="geometry" />
        </mxCell>
        <mxCell id="cWcw-PcEzno_2bNdeW2P-32" value="Mail" style="edgeLabel;html=1;align=center;verticalAlign=middle;resizable=0;points=[];fontSize=24;" vertex="1" connectable="0" parent="cWcw-PcEzno_2bNdeW2P-31">
          <mxGeometry x="0.1526" y="4" relative="1" as="geometry">
            <mxPoint as="offset" />
          </mxGeometry>
        </mxCell>
      </root>
    </mxGraphModel>
  </diagram>
  <diagram id="jj8T1LT6G1rz3zhPPq_8" name="Flink RPC类结构图">
    <mxGraphModel dx="2036" dy="711" grid="1" gridSize="10" guides="1" tooltips="1" connect="1" arrows="1" fold="1" page="1" pageScale="1" pageWidth="827" pageHeight="1169" math="0" shadow="0">
      <root>
        <mxCell id="g9B0oWdgCBN0XD8P32CC-0" />
        <mxCell id="g9B0oWdgCBN0XD8P32CC-1" parent="g9B0oWdgCBN0XD8P32CC-0" />
        <mxCell id="g9B0oWdgCBN0XD8P32CC-2" value="&amp;lt;interface&amp;gt;&lt;br style=&quot;font-size: 18px;&quot;&gt;RpcGateway" style="rounded=0;whiteSpace=wrap;html=1;fontSize=18;strokeWidth=2;" vertex="1" parent="g9B0oWdgCBN0XD8P32CC-1">
          <mxGeometry x="290" y="30" width="200" height="70" as="geometry" />
        </mxCell>
        <mxCell id="g9B0oWdgCBN0XD8P32CC-3" value="RpcEndpoint" style="rounded=0;whiteSpace=wrap;html=1;fontSize=18;strokeWidth=10;strokeColor=#009900;" vertex="1" parent="g9B0oWdgCBN0XD8P32CC-1">
          <mxGeometry x="290" y="200" width="200" height="70" as="geometry" />
        </mxCell>
        <mxCell id="g9B0oWdgCBN0XD8P32CC-5" value="" style="endArrow=block;endSize=16;endFill=0;html=1;rounded=0;fontSize=18;strokeWidth=2;exitX=0.5;exitY=0;exitDx=0;exitDy=0;entryX=0.5;entryY=1;entryDx=0;entryDy=0;dashed=1;" edge="1" parent="g9B0oWdgCBN0XD8P32CC-1" source="g9B0oWdgCBN0XD8P32CC-3" target="g9B0oWdgCBN0XD8P32CC-2">
          <mxGeometry width="160" relative="1" as="geometry">
            <mxPoint x="410" y="140" as="sourcePoint" />
            <mxPoint x="570" y="140" as="targetPoint" />
          </mxGeometry>
        </mxCell>
        <mxCell id="g9B0oWdgCBN0XD8P32CC-6" value="" style="rounded=0;whiteSpace=wrap;html=1;fontSize=18;strokeColor=#009900;strokeWidth=6;" vertex="1" parent="g9B0oWdgCBN0XD8P32CC-1">
          <mxGeometry x="-90" y="200" width="200" height="70" as="geometry" />
        </mxCell>
        <mxCell id="g9B0oWdgCBN0XD8P32CC-7" value="" style="rounded=0;whiteSpace=wrap;html=1;fontSize=18;strokeColor=#FF0000;strokeWidth=6;" vertex="1" parent="g9B0oWdgCBN0XD8P32CC-1">
          <mxGeometry x="-130" y="390" width="190" height="70" as="geometry" />
        </mxCell>
        <mxCell id="g9B0oWdgCBN0XD8P32CC-8" value="Extends" style="endArrow=block;endSize=16;endFill=0;html=1;rounded=0;dashed=1;fontSize=18;strokeWidth=2;exitX=1;exitY=0;exitDx=0;exitDy=0;entryX=0;entryY=1;entryDx=0;entryDy=0;" edge="1" parent="g9B0oWdgCBN0XD8P32CC-1" source="g9B0oWdgCBN0XD8P32CC-7" target="g9B0oWdgCBN0XD8P32CC-3">
          <mxGeometry width="160" relative="1" as="geometry">
            <mxPoint x="160" y="380" as="sourcePoint" />
            <mxPoint x="320" y="380" as="targetPoint" />
          </mxGeometry>
        </mxCell>
        <mxCell id="g9B0oWdgCBN0XD8P32CC-9" value="" style="rounded=0;whiteSpace=wrap;html=1;fontSize=18;strokeColor=#004C99;strokeWidth=6;" vertex="1" parent="g9B0oWdgCBN0XD8P32CC-1">
          <mxGeometry x="150" y="550" width="190" height="70" as="geometry" />
        </mxCell>
        <mxCell id="g9B0oWdgCBN0XD8P32CC-10" value="" style="rounded=0;whiteSpace=wrap;html=1;fontSize=18;strokeColor=#000000;strokeWidth=2;" vertex="1" parent="g9B0oWdgCBN0XD8P32CC-1">
          <mxGeometry x="-400" y="570" width="190" height="70" as="geometry" />
        </mxCell>
        <mxCell id="g9B0oWdgCBN0XD8P32CC-11" value="Extends" style="endArrow=block;endSize=16;endFill=0;html=1;rounded=0;dashed=1;fontSize=18;strokeWidth=2;entryX=0;entryY=1;entryDx=0;entryDy=0;" edge="1" parent="g9B0oWdgCBN0XD8P32CC-1" source="g9B0oWdgCBN0XD8P32CC-10" target="g9B0oWdgCBN0XD8P32CC-7">
          <mxGeometry width="160" relative="1" as="geometry">
            <mxPoint x="-305" y="410" as="sourcePoint" />
            <mxPoint x="-305" y="410" as="targetPoint" />
          </mxGeometry>
        </mxCell>
        <mxCell id="g9B0oWdgCBN0XD8P32CC-12" value="Extends" style="endArrow=block;endSize=16;endFill=0;html=1;rounded=0;dashed=1;fontSize=18;strokeWidth=2;exitX=0;exitY=0;exitDx=0;exitDy=0;entryX=1;entryY=1;entryDx=0;entryDy=0;" edge="1" parent="g9B0oWdgCBN0XD8P32CC-1" source="g9B0oWdgCBN0XD8P32CC-9" target="g9B0oWdgCBN0XD8P32CC-7">
          <mxGeometry width="160" relative="1" as="geometry">
            <mxPoint x="30" y="510" as="sourcePoint" />
            <mxPoint x="190" y="510" as="targetPoint" />
          </mxGeometry>
        </mxCell>
        <mxCell id="g9B0oWdgCBN0XD8P32CC-13" value="Extends" style="endArrow=block;endSize=16;endFill=0;html=1;rounded=0;dashed=1;fontSize=18;strokeWidth=2;entryX=0;entryY=0.5;entryDx=0;entryDy=0;exitX=1;exitY=0.5;exitDx=0;exitDy=0;" edge="1" parent="g9B0oWdgCBN0XD8P32CC-1" source="g9B0oWdgCBN0XD8P32CC-6" target="g9B0oWdgCBN0XD8P32CC-3">
          <mxGeometry width="160" relative="1" as="geometry">
            <mxPoint x="110" y="230" as="sourcePoint" />
            <mxPoint x="270" y="230" as="targetPoint" />
          </mxGeometry>
        </mxCell>
      </root>
    </mxGraphModel>
  </diagram>
</mxfile>
